<svg width="28" height="28" viewBox="0 0 28 28" fill="none" xmlns="http://www.w3.org/2000/svg">
<path fill-rule="evenodd" clip-rule="evenodd" d="M2.3335 14C2.3335 13.3557 2.85584 12.8333 3.50016 12.8333H24.5002C25.1445 12.8333 25.6669 13.3557 25.6669 14C25.6669 14.6444 25.1445 15.1667 24.5002 15.1667H3.50016C2.85584 15.1667 2.3335 14.6444 2.3335 14Z" fill="#3EBDF2"/>
<path fill-rule="evenodd" clip-rule="evenodd" d="M16.6752 6.17505C17.1307 5.71944 17.8695 5.71944 18.3251 6.17505L25.3251 13.1751C25.7806 13.6306 25.7806 14.3694 25.3251 14.825L18.3251 21.825C17.8695 22.2805 17.1307 22.2805 16.6752 21.825C16.2196 21.3694 16.2196 20.6306 16.6752 20.1751L22.8502 14L16.6752 7.82497C16.2196 7.36935 16.2196 6.63067 16.6752 6.17505Z" fill="#DD2F6C"/>
</svg>
